<svg width="60" height="60" viewBox="0 0 60 60" fill="none" xmlns="http://www.w3.org/2000/svg">
<g clip-path="url(#clip0_206_281)">
<path d="M30 60C46.5685 60 60 46.5685 60 30C60 13.4315 46.5685 0 30 0C13.4315 0 0 13.4315 0 30C0 46.5685 13.4315 60 30 60Z" fill="#2D598A"/>
<path d="M28.1269 42.5719C26.3944 42.5719 24.8194 42.2737 23.4019 41.6775C21.9844 41.0812 20.8256 40.2206 19.9256 39.0956L23.5706 34.7756C24.8306 36.4181 26.1919 37.2394 27.6544 37.2394C28.6219 37.2394 29.3588 36.9469 29.865 36.3619C30.3713 35.7769 30.6244 34.9219 30.6244 33.7969V23.6381H22.4569V18.4744H37.2394V33.3919C37.2394 36.4519 36.4688 38.7469 34.9275 40.2769C33.3863 41.8069 31.1194 42.5719 28.1269 42.5719Z" fill="white"/>
</g>
<defs>
<clipPath id="clip0_206_281">
<rect width="60" height="60" fill="white"/>
</clipPath>
</defs>
</svg>
